#!OML:ASF E:\acrobat2\Project_11_07_03\Capture day 1\Session 1\Acrobat.ASF
:FULLY-SPECIFIED
:DEGREES
367
root 8.3902 15.3504 -20.4645 55.606 -22.7354 -26.559
lowerback 16.3435 0.328598 -7.22143
upperback 2.47554 -1.62559 -8.68519
thorax -6.60628 -0.774789 -4.92014
lowerneck -6.37859 4.75088 6.90215
upperneck -16.5807 5.48573 -6.23014
head -3.54147 2.60599 -3.10573
rclavicle -2.8625e-014 -3.49861e-014
rhumerus 74.2743 -52.8845 -47.8916
rradius 30.7933
rwrist -19.3533
rhand -23.2593 -47.7304
rfingers 7.12502
rthumb 3.19272 -77.6862
lclavicle -2.8625e-014 -3.49861e-014
lhumerus 74.3861 40.2394 63.2948
lradius 14.4863
lwrist -7.29761
lhand -25.8585 4.99122
lfingers 7.12502
lthumb 0.682445 34.9699
rfemur -10.2622 -8.78493 28.206
rtibia 15.9879
rfoot -17.3775 -30.7185
rtoes 13.3805
lfemur -88.8417 18.0012 -7.94785
ltibia 84.1335
lfoot -36.2245 -2.39861
ltoes 31.9973
368
root 8.37173 15.375 -20.2046 57.268 -21.4407 -26.3831
lowerback 16.7351 0.197987 -8.07896
upperback 2.43568 -1.99173 -8.6188
thorax -6.84695 -0.919328 -4.28942
lowerneck -6.39709 4.44493 6.8441
upperneck -17.3817 5.15929 -5.34811
head -3.83904 2.39983 -2.84531
rclavicle -6.04305e-014 8.74653e-014
rhumerus 74.6822 -52.8472 -47.6751
rradius 31.5955
rwrist -19.6031
rhand -23.4876 -47.8542
rfingers 7.12502
rthumb 2.97217 -77.8132
lclavicle -6.04305e-014 8.74653e-014
lhumerus 76.9582 39.7788 66.0218
lradius 14.1791
lwrist -7.31113
lhand -26.3975 5.81165
lfingers 7.12502
lthumb 0.161841 35.7913
rfemur -10.642 -7.98723 28.0411
rtibia 13.5298
rfoot -11.4959 -32.8551
rtoes 12.9167
lfemur -89.6137 17.8765 -8.21789
ltibia 82.9144
lfoot -36.6384 -2.91021
ltoes 33.2539
369
root 8.35355 15.3894 -19.9284 59.4323 -20.1992 -26.3878
lowerback 16.6312 0.140032 -8.90485
upperback 2.2792 -2.19355 -8.452
thorax -6.92594 -0.983008 -3.60154
lowerneck -5.5544 4.08969 7.4664
upperneck -19.2853 4.67329 -5.41536
head -4.57139 2.10321 -3.03218
rclavicle 3.18055e-014 -1.01778e-013
rhumerus 74.7687 -52.896 -47.0423
rradius 32.5607
rwrist -19.9383
rhand -23.5728 -47.557
rfingers 7.12502
rthumb 2.88992 -77.5171
lclavicle 3.18055e-014 -1.01778e-013
lhumerus 79.8938 39.1306 69.6098
lradius 13.8805
lwrist -7.99648
lhand -26.7362 6.41857
lfingers 7.12502
lthumb -0.165267 36.3982
rfemur -11.569 -7.52955 27.8992
rtibia 11.2116
rfoot -2.37219 -34.08
rtoes 10.2768
lfemur -90.6743 18.049 -8.55012
ltibia 81.5643
lfoot -37.0799 -3.44868
ltoes 34.4308
370
root 8.34222 15.3942 -19.6727 62.3407 -18.6672 -26.4658
lowerback 15.6756 -0.299961 -9.12647
upperback 2.11322 -2.65386 -8.31501
thorax -6.55937 -1.19638 -3.22825
lowerneck -5.16484 3.72619 7.69376
upperneck -21.1306 4.24359 -4.87464
head -5.25297 1.81246 -2.94907
rclavicle 1.90833e-014 3.57812e-014
rhumerus 76.1281 -52.7248 -47.8638
rradius 33.5269
rwrist -20.1211
rhand -23.4613 -47.7641
rfingers 7.12502
rthumb 2.99759 -77.7228
lclavicle 1.90833e-014 3.57812e-014
lhumerus 83.2159 38.833 73.325
lradius 13.5116
lwrist -9.14463
lhand -27.0816 6.91686
lfingers 7.12502
lthumb -0.498922 36.896
rfemur -13.5795 -7.31923 28.1733
rtibia 9.32466
rfoot 8.61915 -32.8281
rtoes 4.3956
lfemur -92.7638 18.3588 -8.84502
ltibia 80.4528
lfoot -37.5744 -4.32188
ltoes 35.9944
371
root 8.33914 15.3972 -19.4182 65.0166 -16.8421 -26.6042
lowerback 14.9964 -0.910134 -8.88411
upperback 2.00429 -3.28201 -8.05493
thorax -6.28994 -1.49933 -2.95628
lowerneck -4.72402 3.41827 7.41164
upperneck -23.0025 3.96972 -3.99196
head -5.97297 1.60539 -2.67
rclavicle 1.27222e-014 1.11319e-013
rhumerus 77.6725 -52.1981 -48.8121
rradius 34.6752
rwrist -20.5363
rhand -23.2862 -48.2308
rfingers 7.12502
rthumb 3.16675 -78.187
lclavicle 1.27222e-014 1.11319e-013
lhumerus 86.3944 38.6795 76.7116
lradius 13.0048
lwrist -10.2574
lhand -27.7155 7.3738
lfingers 7.12502
lthumb -1.11115 37.3506
rfemur -15.4107 -7.2031 28.7337
rtibia 7.69153
rfoot 19.5689 -27.3356
rtoes 7.97191
lfemur -94.607 18.6299 -8.76002
ltibia 79.3199
lfoot -37.9071 -5.7348
ltoes 38.9831
372
root 8.3386 15.4137 -19.1527 67.1403 -14.8594 -26.8968
lowerback 15.1649 -1.27878 -8.52076
upperback 1.82751 -3.70616 -7.7032
thorax -6.56629 -1.69098 -2.68822
lowerneck -5.85809 2.96837 5.2653
upperneck -21.7983 3.82393 -0.78062
head -5.53968 1.51368 -1.24277
rclavicle -6.36111e-014 -7.95139e-015
rhumerus 78.3052 -51.6628 -48.8051
rradius 35.9327
rwrist -21.0955
rhand -23.673 -48.4451
rfingers 7.12502
rthumb 2.79319 -78.4065
lclavicle -6.36111e-014 -7.95139e-015
lhumerus 89.0355 37.8697 79.9325
lradius 12.6803
lwrist -11.1832
lhand -28.6222 7.88662
lfingers 7.12502
lthumb -1.98684 37.8571
rfemur -16.5969 -7.56527 29.5465
rtibia 6.37956
rfoot 28.1145 -21.0001
rtoes 9.93012
lfemur -95.688 19.0376 -8.31262
ltibia 78.1245
lfoot -37.2255 -7.87042
ltoes 41.1228
373
root 8.33976 15.4329 -18.8787 69.3817 -12.9342 -27.4092
lowerback 14.9072 -1.60305 -8.03597
upperback 1.76143 -3.98962 -7.43158
thorax -6.50096 -1.83271 -2.61146
lowerneck -3.0194 2.7314 6.80068
upperneck -26.1861 3.42778 -2.36938
head -7.39686 1.19725 -2.12278
rclavicle 1.59028e-014 -7.31528e-014
rhumerus 79.2099 -51.2392 -49.1611
rradius 37.2373
rwrist -21.6253
rhand -24.0913 -48.4887
rfingers 7.12502
rthumb 2.38916 -78.4551
lclavicle 1.59028e-014 -7.31528e-014
lhumerus 91.1609 36.9611 82.3932
lradius 12.6829
lwrist -11.3748
lhand -29.3595 8.44262
lfingers 7.12502
lthumb -2.69889 38.4053
rfemur -18.0555 -8.58491 30.5786
rtibia 5.83331
rfoot 33.4732 -15.8445
rtoes 12.7074
lfemur -96.7577 19.7901 -7.84066
ltibia 76.9608
lfoot -36.6176 -9.56237
ltoes 42.8487
374
root 8.34445 15.4511 -18.5933 71.5832 -11.3511 -27.7821
lowerback 14.6585 -1.80888 -7.98918
upperback 1.67189 -4.19541 -7.1484
thorax -6.43638 -1.92526 -2.2982
lowerneck -2.62807 2.37777 6.58714
upperneck -27.2156 3.07729 -1.73039
head -7.85242 0.961294 -1.88213
rclavicle -5.08889e-014 2.82274e-014
rhumerus 79.8148 -50.7744 -49.063
rradius 38.6919
rwrist -22.1977
rhand -24.1916 -48.6302
rfingers 7.12502
rthumb 2.2923 -78.5976
lclavicle -5.08889e-014 2.82274e-014
lhumerus 92.2945 36.068 83.7316
lradius 12.8777
lwrist -10.4393
lhand -29.9402 8.67059
lfingers 7.12502
lthumb -3.25967 38.6254
rfemur -19.6341 -10.0023 31.2569
rtibia 5.88001
rfoot 37.8935 -13.1323
rtoes 20.6413
lfemur -97.7453 20.4625 -7.68127
ltibia 75.7698
lfoot -35.7673 -11.4642
ltoes 45.0764
375
root 8.35007 15.4714 -18.2993 73.542 -10.0665 -27.9792
lowerback 14.3951 -2.14782 -7.93044
upperback 1.7459 -4.58249 -7.20227
thorax -6.21338 -2.11755 -2.32395
lowerneck -2.98909 2.09764 5.84121
upperneck -27.4305 2.93014 -0.312803
head -7.91468 0.830154 -1.27021
rclavicle 1.90833e-014 1.51076e-014
rhumerus 80.835 -50.0807 -49.6795
rradius 40.0162
rwrist -22.5264
rhand -24.3169 -48.4662
rfingers 7.12502
rthumb 2.17127 -78.4349
lclavicle 1.90833e-014 1.51076e-014
lhumerus 93.1192 35.3231 83.9301
lradius 12.9882
lwrist -9.07206
lhand -30.834 8.47259
lfingers 7.12502
lthumb -4.12287 38.4124
rfemur -20.593 -10.2867 31.037
rtibia 6.85228
rfoot 37.9272 -15.2724
rtoes 23.7209
lfemur -98.4826 20.9421 -7.71818
ltibia 74.5665
lfoot -34.9134 -12.6502
ltoes 45.9101
376
root 8.3572 15.4948 -17.9965 75.3052 -8.77225 -28.1015
lowerback 14.3594 -2.48559 -7.97684
upperback 1.76216 -5.00886 -7.1341
thorax -6.15946 -2.31755 -2.14698
lowerneck -2.98904 1.96839 4.9156
upperneck -27.7978 2.99364 0.909337
head -8.07781 0.837129 -0.709777
rclavicle 2.54444e-014 -3.40916e-014
rhumerus 81.7202 -49.0209 -49.9229
rradius 41.2558
rwrist -22.7168
rhand -24.7423 -48.1652
rfingers 7.12502
rthumb 1.76043 -78.1377
lclavicle 2.54444e-014 -3.40916e-014
lhumerus 93.7884 34.5931 84.2473
lradius 12.9018
lwrist -8.14275
lhand -31.9717 8.19628
lfingers 7.12502
lthumb -5.22142 38.1119
rfemur -21.1034 -10.5272 30.593
rtibia 7.72739
rfoot 34.8899 -18.3209
rtoes 22.9511
lfemur -98.9514 21.3642 -7.67803
ltibia 73.2068
lfoot -33.6582 -13.8506
ltoes 47.0478
377
root 8.36603 15.5177 -17.6752 76.7609 -7.51847 -28.2793
lowerback 14.7491 -1.5611 -7.62461
upperback 1.89752 -3.85113 -7.81284
thorax -6.32246 -1.78112 -3.28499
lowerneck -2.72345 0.981932 7.19814
upperneck -28.0851 1.65686 0.751784
head -8.25397 -0.060545 -1.07604
rclavicle -1.01778e-013 5.80451e-014
rhumerus 77.891 -50.7042 -45.9416
rradius 42.4439
rwrist -22.7497
rhand -25.54 -48.5346
rfingers 7.12502
rthumb 0.990013 -78.5121
lclavicle -1.01778e-013 5.80451e-014
lhumerus 93.8424 29.9413 84.3093
lradius 12.9145
lwrist -6.80108
lhand -32.9752 7.59532
lfingers 7.12502
lthumb -6.19023 37.4849
rfemur -20.7019 -10.2892 29.6584
rtibia 8.60429
rfoot 31.1339 -20.6015
rtoes 20.3261
lfemur -99.4393 21.6821 -7.42427
ltibia 72.6147
lfoot -32.9119 -14.9012
ltoes 48.1914
